<?xml version="1.0" encoding="UTF-8"?>
<svg xmlns="http://www.w3.org/2000/svg" viewBox="0 0 400 400" width="400" height="400">
  <defs>
    <linearGradient id="shade" x1="0" y1="0" x2="0" y2="1">
      <stop offset="0" stop-color="#ffffff" stop-opacity="0.15"/>
      <stop offset="0.5" stop-color="#ffffff" stop-opacity="0"/>
      <stop offset="1" stop-color="#000000" stop-opacity="0.11"/>
    </linearGradient>
    <clipPath id="body"><path d="M 142 92 L 105.5 102.6 Q 94 106 87.5 116.1 L 60.5 157.9 Q 54 168 62.7 176.2 L 79.3 191.8 Q 88 200 96.5 191.5 L 105.5 182.5 Q 114 174 113.1 186.0 L 102.9 318.0 Q 102 330 114.0 330.7 L 188.0 335.3 Q 200 336 212.0 335.3 L 286.0 330.7 Q 298 330 297.1 318.0 L 286.9 186.0 Q 286 174 294.5 182.5 L 303.5 191.5 Q 312 200 320.7 191.8 L 337.3 176.2 Q 346 168 339.5 157.9 L 312.5 116.1 Q 306 106 294.5 102.6 L 258 92 L 200 148 L 142 92 Z"/></clipPath>
  </defs>
  <path d="M 142 92 L 105.5 102.6 Q 94 106 87.5 116.1 L 60.5 157.9 Q 54 168 62.7 176.2 L 79.3 191.8 Q 88 200 96.5 191.5 L 105.5 182.5 Q 114 174 113.1 186.0 L 102.9 318.0 Q 102 330 114.0 330.7 L 188.0 335.3 Q 200 336 212.0 335.3 L 286.0 330.7 Q 298 330 297.1 318.0 L 286.9 186.0 Q 286 174 294.5 182.5 L 303.5 191.5 Q 312 200 320.7 191.8 L 337.3 176.2 Q 346 168 339.5 157.9 L 312.5 116.1 Q 306 106 294.5 102.6 L 258 92 L 200 148 L 142 92 Z" fill="#7799c2"/>
  <g clip-path="url(#body)"></g>
  <path d="M 142 92 L 105.5 102.6 Q 94 106 87.5 116.1 L 60.5 157.9 Q 54 168 62.7 176.2 L 79.3 191.8 Q 88 200 96.5 191.5 L 105.5 182.5 Q 114 174 113.1 186.0 L 102.9 318.0 Q 102 330 114.0 330.7 L 188.0 335.3 Q 200 336 212.0 335.3 L 286.0 330.7 Q 298 330 297.1 318.0 L 286.9 186.0 Q 286 174 294.5 182.5 L 303.5 191.5 Q 312 200 320.7 191.8 L 337.3 176.2 Q 346 168 339.5 157.9 L 312.5 116.1 Q 306 106 294.5 102.6 L 258 92 L 200 148 L 142 92 Z" fill="url(#shade)"/>
  <path d="M 142 92 L 105.5 102.6 Q 94 106 87.5 116.1 L 60.5 157.9 Q 54 168 62.7 176.2 L 79.3 191.8 Q 88 200 96.5 191.5 L 105.5 182.5 Q 114 174 113.1 186.0 L 102.9 318.0 Q 102 330 114.0 330.7 L 188.0 335.3 Q 200 336 212.0 335.3 L 286.0 330.7 Q 298 330 297.1 318.0 L 286.9 186.0 Q 286 174 294.5 182.5 L 303.5 191.5 Q 312 200 320.7 191.8 L 337.3 176.2 Q 346 168 339.5 157.9 L 312.5 116.1 Q 306 106 294.5 102.6 L 258 92 L 200 148 L 142 92 Z" fill="none" stroke="rgba(0,0,0,0.18)" stroke-width="3"/>
  
  <rect x="193" y="112" width="14" height="224" fill="rgba(0,0,0,0.07)" stroke="rgba(0,0,0,0.12)" stroke-width="1.5"/>
  <circle cx="200" cy="130" r="3.5" fill="#b8edff" stroke="rgba(0,0,0,0.28)" stroke-width="1.2"/>
  <circle cx="200" cy="172" r="3.5" fill="#b8edff" stroke="rgba(0,0,0,0.28)" stroke-width="1.2"/>
  <circle cx="200" cy="214" r="3.5" fill="#b8edff" stroke="rgba(0,0,0,0.28)" stroke-width="1.2"/>
  <circle cx="200" cy="256" r="3.5" fill="#b8edff" stroke="rgba(0,0,0,0.28)" stroke-width="1.2"/>
  <circle cx="200" cy="298" r="3.5" fill="#b8edff" stroke="rgba(0,0,0,0.28)" stroke-width="1.2"/>
  <path d="M 140 92 L 200 110 L 164 152 Z" fill="#6d8db2" stroke="rgba(0,0,0,0.18)" stroke-width="2" stroke-linejoin="round"/>
  <path d="M 260 92 L 200 110 L 236 152 Z" fill="#6d8db2" stroke="rgba(0,0,0,0.18)" stroke-width="2" stroke-linejoin="round"/>
</svg>
